# xmcd
#
# Track frame offsets:
#	150
#	19550
#	37732
#	54255
#	67557
#	76829
#	89581
#	110806
#	126610
#	137014
#	154711
#	165919
#	182789
#	196325
#	210253
#	225777
#	242456
#	259997
#
# Disc length: 3673 seconds
#
# Revision: 1
# Processed by: cddbd v1.5.1PL0 Copyright (c) Steve Scherf et al.
# Submitted via: audiograbber 1.83.01
#
DISCID=d70e5712
DTITLE=Daniel O'Donnell - The Christmas Album
DYEAR=2004
DGENRE=Country
TTITLE0=Silent Night
TTITLE1=White Christmas
TTITLE2=When A Child Is Born
TTITLE3=An Old Christmas Card
TTITLE4=Rockin' Around The Christmas Tree
TTITLE5=I Saw Mommy Kissing Santa Claus
TTITLE6=Everything Is Beautiful
TTITLE7=Light A Candle
TTITLE8=Snowflakes
TTITLE9=Christmas Long Ago
TTITLE10=Santa Claus Is Coming To Town
TTITLE11=The Old Rugged Cross
TTITLE12=Silver Bells
TTITLE13=Pretty Paper
TTITLE14=Make Me A Channel Of Your Peace
TTITLE15=C.H.R.I.S.T.M.A.S.
TTITLE16=Amazing Grace
TTITLE17=Christmas Story
EXTD=
EXTT0=
EXTT1=
EXTT2=
EXTT3=
EXTT4=
EXTT5=
EXTT6=
EXTT7=
EXTT8=
EXTT9=
EXTT10=
EXTT11=
EXTT12=
EXTT13=
EXTT14=
EXTT15=
EXTT16=
EXTT17=
PLAYORDER=
